<svg id="ePHa5XGJvr01" xmlns="http://www.w3.org/2000/svg" xmlns:xlink="http://www.w3.org/1999/xlink" viewBox="0 0 590.78999 646.58999" shape-rendering="geometricPrecision" text-rendering="geometricPrecision" project-id="41d39d95bb5a46748ff2b16df29dbc77" export-id="1d01fbaaaa6d4f09bd9914f1a068a1d6" cached="false"><path d="M356.28,8c16.69.24,33.38,1.01,50.06,1.81c16.33,1.14,32.7-.04,49.04-.35-.15,5.46.09,10.93-.38,16.38-.35,5.62-1.09,11.37.43,16.89c4.15-1.16,8.24-2.52,12.48-3.28c6.78-2.33,13.27-5.42,19.98-7.94c7.56-1.01,14.14-6.21,21.97-5.71c2.49,4.7,8.14,6.61,10.01,11.75c2.98,3.56,7.04,6.39,8.94,10.82c6.43,5.71,10.5,13.6,16.94,19.3c1.76,3.96,4.92,7.02,8.07,9.89c1.93,3.02,3.5,6.4,6.48,8.6c2.56,1.86,3.66,4.88,5.38,7.39c3.23,2.81,6.06,6.1,8.1,9.89c2.55,2.92,4.46,6.31,6.6,9.53c2.6,3.4,1.98,7.94,2.41,11.95-.88,7.31-.1,14.69-.96,22-2.66,29.36-5.63,58.69-8.47,88.03-.23,7.21.12,14.42-.16,21.62-2.91,3.27-6.87,5.54-9.11,9.39-.53,1.13-1.69,1.59-2.72,2.13-4.57,2.18-7.67,6.56-12.48,8.34-8.14,3.06-15.34,8.6-24.07,9.99-9.6,3.26-19.32,6.64-29.48,7.58-2.16-.08-5.31.67-6.38-1.81-1.96-3.97-5.42-7.05-6.47-11.45-2.89-4.44-6.4-8.52-8.56-13.43-2.72-6-7.97-10.44-10.2-16.69-2.18-3.14-4.26-6.35-6.27-9.6c2.18-.17,4.65.54,6.54-.94c1.6-.07,3.22-.09,4.84-.11c2.29,1.53,4.34,3.49,5.56,6c1.44,3.08,4.73,4.52,6.75,7.13c1.85,1.93,2.64,4.74,5.01,6.18c3.03,2.21,5.12,5.35,7.49,8.19c4.43,1.54,6.67-3.81,8.39-6.88c3.28-3.52,6.83-7.22,8.13-11.99.63-48.63-.25-97.36-5.4-145.76-.88-11.03-3.46-21.89-3.64-32.96-.59-3.86-1.63-7.65-1.92-11.55-1.89-1.67-4.21-3.67-6.93-2.91-5.34,1.1-10.55,2.95-16.06,2.74-7,1.6-14.1,3.03-20.77,5.74-1.08,5.98-.53,12.08-.65,18.13-.17,21,.42,41.98.24,62.99-.11,30.67.45,61.33.24,92.01c2.09,44.38,5.44,88.69,8.53,133.01.54,5.36.56,10.74.46,16.12.16,1.84-1.62,2.96-2.5,4.34-2.82-4.21-5.45-8.6-7.05-13.44-2.15-6.02-6.47-10.94-8.5-17.01-2.21-6.02-5.99-11.25-8.67-17.04-.71,56.94.23,113.91-.55,170.86-4.11-1.75-5.89-5.91-8.15-9.42-1.52-7.51-7.59-13.03-9.83-20.28-1.43-4.41-4.72-7.86-6.55-12.09-.52,11.64-2.05,23.24-2.19,34.9.36,10.7-1.08,21.33-1.76,31.99-2.01,25.39-4.05,50.78-6.63,76.12-1.28,7.81.52,16.03-2.7,23.5-2.59-11.13-4.03-22.5-6.27-33.71-1-4.2-.32-8.55-1.19-12.75-2.73-14.74-5.27-29.52-8.04-44.26-.64-3.54-.18-7.18-.9-10.71-2.79-15.21-5.61-30.41-8.35-45.62.15-7.67-1.92-15.09-3.17-22.59-1.9-10.3-3.82-20.59-5.73-30.88-.4-3.64-.14-7.33-.96-10.92-2.45-13.07-4.91-26.15-7.33-39.23-1.41-5.61-.68-11.49-2.1-17.11c1.67,2.98,3.95,5.64,6.82,7.54c3.01,1.7,3.69,5.51,6.54,7.42c2.84,1.86,5.18,4.3,6.93,7.21c1.42.09,1.99-.59,1.72-2.05-.82-10.02-3.2-19.92-2.97-30.02-2.47-18.55-5.46-37.02-8.53-55.47-.68-3.48-.06-7.07-.81-10.54-2.9-16.46-5.8-32.98-9.08-49.33-10.08-2.06-20.75.97-30.42,4.28-3.15.79-5.89,2.75-9.12,3.21-1.72.27-3.39.95-4.77,2.01-1.28,2.8-.46,6.02-.67,8.99-.18,32.65.44,65.29.26,97.93.46,33.67.15,67.36.24,101.03-.51,14.36,1.2,29.18,7.64,42.19c2,5.13,5.08,10.27,9.93,13.15c2.75,2.46,6.27,3.75,9.22,5.91.34,1.51.34,3.1.07,4.63-1.5,1.5-3.75,1.92-5.77,1.46-9.33-1.61-18.67-3.7-28.19-3.43-30.13-3.54-60.75-5.14-90.94-1.26-1.94-.2-1.71-2.33-2.13-3.69-.34-1.92-1.84-3.31-2.86-4.87c3.97-3.17,8.23-5.94,12.56-8.59c2.92-3.15,5.94-6.2,8.86-9.35c1.23-3.55,3.17-6.79,4.71-10.2c2.97-8.69,5.3-17.79,4.95-27.04c3.95-40.2,3.59-80.68,2.31-121.01-.35-14.1-1.47-28.16-2.39-42.21-3.87,2.84-7.59,5.93-11.49,8.7-4.32.79-7.44,4.04-11.4,5.65-3.83,1.65-7.29,4.2-11.6,4.39-7.66,3.32-15.58,6.03-23.59,8.33-3.88.12-7.65.97-11.39,1.96.51,47.05.69,94.11,1.42,141.16-.38,4.73,2.55,8.59,4.57,12.58c5.42,2.78,9.06,8.66,15.28,9.82.77.57,1.54,1.16,2.31,1.75-.07,1.63-.13,3.27-.22,4.91-14.07-4.92-29.07-5.87-43.83-6.93-17.02.3-34.01-1.04-51.03-1.27-13.56-.38-27.13-.59-40.71-.53-.1-2.33-.25-4.65-.34-6.97c4.9-.77,9.1-3.55,13.09-6.33c5.64-3.48,11.13-7.59,14.7-13.28c2.42-4.6,4.86-9.39,5.27-14.65c2.17-17.91,1.74-35.98,2.24-53.97-.05-19.73-.17-39.45-.71-59.17-5.57-2.76-11.15-5.53-16.52-8.63-3-.17-5.65-1.65-8.14-3.2-3.21-2.02-6.78-3.38-10.01-5.37-2.31-.89-4.87-1.22-6.86-2.81-3.33-2.41-7.15-4.04-10.45-6.48-4.93-2.59-7.85-7.49-11.57-11.4-1.97-2.39-3.69-4.97-5.69-7.35-1.94-5.61-6.63-9.65-8.73-15.17-1.68-4.8-4.45-9.15-5.86-14.06c7.16-3.73,14.78-7.28,22.95-7.65c9.41-2.17,18.88-4.1,28.44-5.48c2.93-.11,2.04,3.29.93,4.84-3.54,2.04-7.32,3.69-10.66,6.08-2.55,1.84-5.29,3.62-8.46,4.11-4.91,3.39-10.19,6.21-14.81,10.04c2.06,1.9,4.07,3.86,5.88,6.01c2,2.45,5.46,2.74,7.62,4.98c5.3,5.15,12.59,7.31,18.49,11.61c2.59,1.87,5.46,3.4,8.53,4.33c7.95,3.07,14.98,10.57,24.1,8.98.26-18.09-.43-36.17-.95-54.25-1.25-39.32-2.82-78.63-4.41-117.93-.66-10.71-.23-21.44-.38-32.15.04-3-1.54-5.65-3.03-8.14-4.2-7.93-12.27-12.89-20.31-16.24.65-2.44,2.62-4.49,5.25-4.52c16.67,1.18,33.41.78,50.11.48c20.63-.43,41.24-1.32,61.86-2.02-.11,2.15-.29,4.29-.54,6.43-.9.43-1.8.86-2.7,1.29-2.65,3.42-5.95,6.42-7.94,10.29-2.89,5.45-1.16,11.72-1.81,17.57-.43,24.98.36,49.95.13,74.93-.17,30.69,1.42,61.35,2.51,92.01.38,7.1.55,14.22,1.31,21.3c4.8-1.12,9.3-3.24,13.71-5.39c2.62-2.23,6.4-1.83,9.03-4.07c3.05-2.55,6.88-3.93,9.91-6.51c6.64-1.61,10.55-8.11,17.11-9.98c3.67-3.18,7.83-5.74,11.54-8.87c2.89-1.38,5.37-3.43,7.84-5.43.09-24.37.01-48.74.05-73.11-.96-37.39-2.98-74.76-6.13-112.03-.36-3.38-2.05-6.39-3.14-9.56-2.84-1.58-5.47-3.51-8.41-4.92-.98-2.11-4.35-5.25-1.36-7.1c11.19,2.51,22.65,1.35,34,1.95c15.37.82,30.73-.4,46.1-.3c8.98-.43,17.91-1.83,26.89-2.16.46.32,1.39.96,1.86,1.28-2.56,3.26-6.05,5.81-7.82,9.68-3.09,7.21-7.22,13.93-9.71,21.41-2.74,19.16-2.37,38.59-2.53,57.9-.14,19,.18,37.99.3,56.99.44,12.29.1,24.6.89,36.88c10.6-2.49,21.2-5.38,32.11-6.09c8.11-1.9,17.25-1.45,24.08,3.8c2.37.39,4.68,1.18,6.61,2.65c3.64,2.79,7.69,4.96,11.7,7.15-.7-7.51-1.8-14.98-1.51-22.54-2.18-21.11-5.4-42.09-8.56-63.07-.65-3.78-.16-7.64-.61-11.43-2.85-19.3-5.63-38.6-8.42-57.9-.66-3.84-.07-7.77-.68-11.61-2.53-17.63-5.11-35.24-7.64-52.87-.84-4.63-1.21-9.34-1.04-14.04Z" fill="#fff"/></svg>
